<svg t="1715132406969" class="icon" viewBox="0 0 1024 1024" version="1.1" xmlns="http://www.w3.org/2000/svg" p-id="4353" data-spm-anchor-id="a313x.search_index.0.i3.d8173a81jXkUM5" width="200" height="200"><path d="M239.317333 810.666667l-8.533333-1.28C173.226667 801.152 128 750.805333 128 689.152c0-51.157333 31.146667-94.72 75.050667-112.725333L256.170667 554.666667 256 495.36a213.333333 213.333333 0 0 1 420.437333-51.328l15.189334 61.354667 63.104 3.370666C832.853333 512.853333 896 578.346667 896 659.584c0 84.053333-67.413333 151.04-149.333333 151.04H725.333333v85.333333h21.333334c129.621333 0 234.666667-105.813333 234.666666-236.373333 0-126.293333-98.304-229.461333-222.08-236.074667A298.666667 298.666667 0 0 0 170.666667 495.488v1.962667a206.933333 206.933333 0 0 0-128 191.658666c0 104.192 76.458667 190.421333 175.957333 204.8v2.048H298.666667v-85.333333H239.317333z" fill="#3560e2" p-id="4354"></path><path d="M512 512l219.477333 219.477333h-120.704L512 632.618667l-98.858667 98.858666H292.522667L512 512z" fill="#3560e2" p-id="4355"></path><path d="M554.666667 597.333333v298.666667h-85.333334v-298.666667h85.333334z" fill="#3560e2" p-id="4356"></path></svg>